<?xml version="1.0" encoding="utf-8"?>
<!-- Generator: Adobe Illustrator 29.8.2, SVG Export Plug-In . SVG Version: 9.03 Build 0)  -->
<svg version="1.0" id="Layer_1" xmlns="http://www.w3.org/2000/svg" xmlns:xlink="http://www.w3.org/1999/xlink" x="0px" y="0px"
	 viewBox="0 0 500 500" style="enable-background:new 0 0 500 500;" xml:space="preserve">
<g>
	<path d="M249.48,192.32c10.32,0.8,21.15,10.63,16.49,21.53c-1.3,3.05-3.09,6.32-4.46,9.11c-10.62,21.71-21.77,44.37-32.11,65.8
		l-7.68,4.15l-2.04,1.01c-4.23,2.76-8.17,4.71-12.6,7.15c-3.43,1.89-11.92,7.41-15.44,7.41h-70.08l-0.24-0.48
		c1.98-1.19,3.95-2.47,5.96-3.65c5.52-3.23,11.03-5.99,16.52-9.1c7.53-4.26,15.29-9.33,22.92-12.78
		c13.24-5.98,28.13,4.53,38.16-11.39c3.42-5.44,6.22-11.98,8.89-17.51c4.31-8.93,9.5-19.15,13.77-28.91
		c0.09-0.2,0.91-1.24,0.93-1.32c0.09-0.38,0.08-1.92,0.02-2.36c-0.12-0.93-2.43-1.63-3.25-1.56l-74.66,0.02
		c-6.18-0.41-9.98-3.74-13.8-8c-4.05-4.51-8.3-9.73-12.32-14.25c-0.78-0.88-3.46-3.27-3.89-4.01c-0.16-0.27-0.2-0.59-0.34-0.87
		H249.48z"/>
	<path d="M362.52,192.32c3.84,3.04,7.08,6.58,10.54,9.98c0.38,0.37,0.96,0.55,1.36,0.94c3.88,3.83,4.84,5.29,2.38,10.75
		c-3.15,6.96-6.19,12.65-9.56,19.58c-1.42,2.91-2.76,6.77-4.41,9.47c-0.05,0.08-1.14,1.24-1.22,1.29c-0.53,0.34-2.01,0.77-2.72,1.12
		c-10.23,5.09-19.23,9.38-29.54,13.53l-36.92,0.04c-1.58,0.17-3.43,1.71-4.35,2.97c-0.59,0.81-1.66,3.4-2.07,4.41
		c-0.95,2.32-2.51,4.94-3.73,7.48c-3.29,6.84-5.57,14.26-11.39,18.92c-0.19,0.13-0.55,0.02-0.68,0.1c-1.89,1.11-4.07,2-6.12,2.94
		c-7.47,3.41-16.22,7.6-24.59,11.22c-0.33,0.14-2.57,1.41-2.73,1.41h-3.96c0.63-1.51,1.23-3.13,1.95-4.6
		c7.85-16.18,15.47-31.06,23.1-47.15c0.74-1.56,1.54-3.06,2.29-4.61c3.06-6.36,8.66-20.44,16.7-21.41l56.15-0.01
		c1.08-0.35,1.89-0.81,2.67-1.65c1.22-1.32,3.39-5.4,3.45-7.13c0.06-1.77-0.96-2.23-2.53-2.46l-51.58-0.02
		c-3.21-0.31-5.37-2.04-4.04-5.98c1.03-3.07,1.41-5.42,3.88-7.21c2.37-0.98,4.76-1.14,7.25-1.58l-2.06-11.9L362.52,192.32z"/>
	<path d="M211.8,230.72c0.78,0.6-0.19,1.32-0.33,1.64c-2.93,6.91-6.72,13.16-9.47,19.88c-0.76,1.85-1.77,3.54-2.77,5.56
		c-0.39,0.78-0.99,3.14-1.71,3.51c-4.45,0.01-9.35,0.45-13.8,0.15c-4.05-0.28-8.2-2.35-10.83-5.37c-0.98-1.12-2.33-3.22-3.46-4.53
		c-4.97-5.8-9.74-11.33-14.64-17.04c-0.76-0.88-2.27-2.1-2.85-3.01c-0.17-0.26-0.28-0.78,0.11-0.78H211.8z"/>
</g>
<path d="M296.44,219.45h-17.88c-1.26,0-2.09-1.32-1.54-2.45l11.32-23.33c0.29-0.59,0.88-0.96,1.54-0.96h12.17
	c0.98,0,1.76,0.82,1.7,1.8l-1.21,23.33c-0.05,0.91-0.8,1.62-1.7,1.62H296.44z"/>
</svg>
