<?xml version="1.0" encoding="UTF-8"?>
<svg id="Layer_1" data-name="Layer 1" xmlns="http://www.w3.org/2000/svg" viewBox="0 0 257.9 116.16">
  <defs>
    <style>
      .cls-1 {
        fill: #fff;
      }
    </style>
  </defs>
  <g>
    <path class="cls-1" d="M129.24,0c10.32.8,21.15,10.63,16.49,21.53-1.3,3.05-3.09,6.32-4.46,9.11-10.62,21.71-21.77,44.37-32.11,65.8l-7.68,4.15-2.04,1.01c-4.23,2.76-8.17,4.71-12.6,7.15-3.43,1.89-11.92,7.41-15.44,7.41H1.32l-.24-.48c1.98-1.19,3.95-2.47,5.96-3.65,5.52-3.23,11.03-5.99,16.52-9.1,7.53-4.26,15.29-9.33,22.92-12.78,13.24-5.98,28.13,4.53,38.16-11.39,3.42-5.44,6.22-11.98,8.89-17.51,4.31-8.93,9.5-19.15,13.77-28.91.09-.2.91-1.24.93-1.32.09-.38.08-1.92.02-2.36-.12-.93-2.43-1.63-3.25-1.56l-74.66.02c-6.18-.41-9.98-3.74-13.8-8-4.05-4.51-8.3-9.73-12.32-14.25C3.45,4.01.77,1.62.34.87c-.16-.27-.2-.59-.34-.87h129.24Z"/>
    <path class="cls-1" d="M91.56,38.4c.78.6-.19,1.32-.33,1.64-2.93,6.91-6.72,13.16-9.47,19.88-.76,1.85-1.77,3.54-2.77,5.56-.39.78-.99,3.14-1.71,3.51-4.45.01-9.35.45-13.8.15-4.05-.28-8.2-2.35-10.83-5.37-.98-1.12-2.33-3.22-3.46-4.53-4.97-5.8-9.74-11.33-14.64-17.04-.76-.88-2.27-2.1-2.85-3.01-.17-.26-.28-.78.11-.78h59.76Z"/>
  </g>
  <path class="cls-1" d="M256.55,21.66c-3.15,6.96-6.19,12.65-9.56,19.58-1.42,2.91-2.76,6.77-4.41,9.47-.04.08-1.14,1.24-1.22,1.29-.52.34-2.01.77-2.72,1.12-10.23,5.09-19.22,9.39-29.54,13.54l-36.92.04c-1.57.17-3.43,1.72-4.35,2.97-.59.82-1.66,3.4-2.07,4.41-.95,2.32-2.51,4.94-3.73,7.48-3.29,6.84-5.57,14.26-11.39,18.92-.19.13-.54.02-.68.1-1.89,1.12-4.07,2.01-6.12,2.94-7.47,3.41-16.22,7.6-24.59,11.23-.33.14-2.57,1.41-2.73,1.41h-3.96c.63-1.51,1.23-3.13,1.95-4.6,7.84-16.19,15.46-31.06,23.1-47.15.74-1.57,1.54-3.06,2.28-4.61,3.06-6.36,8.66-20.45,16.7-21.41h56.16c1.07-.35,1.89-.82,2.66-1.66,1.22-1.32,3.39-5.4,3.45-7.13.06-1.77-.96-2.23-2.53-2.45l-40.13-.02h-17.88c-1.26,0-2.09-1.32-1.54-2.45l11.32-23.33c.29-.59.88-.96,1.54-.96h11.17L242.28,0c3.84,3.04,7.08,6.58,10.54,9.98.37.37.96.54,1.35.93,3.88,3.83,4.84,5.3,2.38,10.75Z"/>
</svg>